<?xml version="1.0" standalone="no"?>
<!DOCTYPE svg PUBLIC "-//W3C//DTD SVG 20010904//EN"
 "http://www.w3.org/TR/2001/REC-SVG-20010904/DTD/svg10.dtd">
<svg version="1.0" xmlns="http://www.w3.org/2000/svg"
 width="2123.000000pt" height="701.000000pt" viewBox="0 0 2123.000000 701.000000"
 preserveAspectRatio="xMidYMid meet">
<metadata>
Created by potrace 1.15, written by Peter Selinger 2001-2017
</metadata>
<g transform="translate(0.000000,701.000000) scale(0.100000,-0.100000)"
fill="#000000" stroke="none">
<path d="M13125 5410 c-299 -16 -394 -36 -700 -145 -154 -55 -409 -156 -403
-159 2 -1 118 1 258 5 140 4 447 8 682 9 l428 1 92 38 c51 21 125 53 163 71
39 18 150 63 248 100 100 38 171 70 163 73 -28 11 -758 16 -931 7z"/>
<path d="M14630 5406 c-183 -24 -333 -67 -500 -143 l-75 -34 29 -16 c24 -12
33 -13 53 -2 31 17 68 4 174 -62 104 -65 112 -67 259 -88 150 -21 344 -16 360
9 15 23 12 103 -5 127 -17 24 -6 38 24 28 19 -6 70 -102 91 -172 7 -24 18 -43
24 -43 6 -1 76 -7 156 -14 138 -13 146 -13 172 5 27 20 116 41 131 32 4 -2 -2
-16 -14 -31 l-21 -27 54 -6 c29 -4 90 -10 136 -13 l82 -6 0 35 0 35 -52 0
c-32 0 -71 9 -98 21 -77 36 -171 29 -262 -19 -4 -2 -18 19 -32 47 -14 28 -51
91 -82 142 -35 58 -52 95 -46 101 18 18 126 12 217 -11 113 -29 282 -91 404
-147 l94 -44 116 1 116 1 -148 73 c-236 115 -416 175 -637 211 -132 22 -579
28 -720 10z m273 -83 c14 -8 -4 -23 -28 -23 -12 0 -25 -7 -29 -15 -4 -12 -24
-15 -91 -15 l-85 0 -45 -41 c-24 -22 -47 -49 -50 -60 -4 -10 -11 -19 -16 -19
-12 0 -188 132 -188 142 -1 7 66 22 164 37 56 9 351 4 368 -6z"/>
<path d="M16290 4991 l0 -81 35 0 c66 0 111 39 103 91 -4 27 -47 54 -100 64
l-38 7 0 -81z"/>
<path d="M13090 4949 c-98 -17 -199 -31 -445 -60 -55 -6 -106 -15 -114 -19
-11 -6 4 -20 55 -53 38 -24 80 -48 93 -52 49 -15 867 7 932 25 65 19 183 110
160 124 -5 4 -65 13 -133 21 -68 8 -153 20 -190 25 -99 15 -239 10 -358 -11z
m280 -124 c17 -9 30 -19 30 -24 0 -20 -638 -40 -695 -21 -56 18 -29 26 115 34
69 4 175 9 235 13 61 3 112 7 114 9 13 12 175 2 201 -11z"/>
<path d="M11473 4908 c-22 -25 -36 -75 -22 -83 4 -3 65 -8 136 -11 155 -6 181
-10 164 -27 -8 -8 -64 -14 -154 -17 -95 -4 -133 -8 -115 -14 15 -4 75 -6 135
-4 l108 3 77 48 c43 26 80 52 83 57 4 6 -33 9 -88 9 -106 -1 -197 14 -245 42
-43 24 -54 24 -79 -3z"/>
<path d="M14147 4536 c-73 -30 -159 -95 -199 -149 -72 -98 -128 -266 -128
-385 l0 -64 -152 5 c-89 2 -204 14 -273 26 -121 21 -154 34 -296 114 -87 49
-166 65 -385 77 -204 11 -1169 12 -1257 1 -75 -9 -102 -34 -93 -84 13 -68 35
-80 198 -106 l146 -24 6 -42 c9 -58 57 -155 102 -205 21 -23 61 -54 88 -68 50
-26 56 -27 257 -30 128 -2 222 1 247 7 95 26 184 113 222 219 l21 57 631 -3
c580 -3 633 -4 644 -20 9 -12 8 -3 -2 27 -8 25 -22 50 -31 56 -32 24 1 186 49
246 7 9 29 19 48 22 19 3 50 9 67 13 84 17 169 -38 198 -127 16 -47 18 -150 4
-199 -3 -12 11 -16 82 -18 75 -2 88 -5 92 -22 4 -17 8 -17 46 -4 29 10 48 11
66 4 41 -16 53 -12 48 13 -2 12 6 49 17 82 27 74 37 211 21 284 -27 128 -107
233 -218 288 -82 40 -185 43 -266 9z"/>
<path d="M16898 4545 c-175 -64 -278 -266 -278 -545 l0 -110 -60 0 -60 0 0
-70 0 -70 -55 0 c-30 0 -55 -4 -55 -9 0 -20 112 -110 156 -125 66 -22 407 -23
482 -1 96 29 207 161 228 271 3 19 12 34 19 34 14 0 25 92 25 215 0 133 -39
243 -114 323 -84 90 -192 122 -288 87z m132 -270 c77 -40 132 -137 138 -245 6
-106 -28 -207 -89 -266 -25 -24 -30 -25 -46 -13 -16 12 -17 12 -6 -2 11 -13 9
-18 -13 -27 -46 -21 -152 -13 -137 11 3 6 1 7 -6 3 -22 -14 -79 42 -112 109
-58 119 -52 238 20 351 58 92 163 125 251 79z"/>
<path d="M12670 4285 c-22 -13 16 -14 321 -15 288 0 348 2 365 15 17 13 -20
14 -321 14 -276 0 -345 -2 -365 -14z"/>
<path d="M17912 3819 c-92 -18 -142 -66 -142 -135 0 -16 -12 -29 -42 -46 -43
-24 -50 -46 -13 -40 11 2 54 3 96 3 62 -1 84 3 121 23 24 13 76 29 115 36 94
15 111 27 94 67 -25 61 -94 105 -161 102 -14 -1 -44 -5 -68 -10z"/>
<path d="M14620 3764 c-35 -16 -50 -30 -58 -54 -10 -28 -9 -34 11 -51 12 -10
46 -28 75 -40 41 -17 57 -30 70 -58 14 -29 23 -36 47 -37 55 -1 63 -4 95 -30
26 -22 38 -26 75 -21 61 6 95 30 95 65 0 42 19 58 83 71 60 13 142 69 175 119
l14 22 -153 0 c-109 0 -169 5 -204 15 -28 9 -99 17 -163 18 -100 3 -120 1
-162 -19z"/>
<path d="M11508 3701 c-24 -20 -48 -30 -85 -34 -62 -7 -93 -25 -125 -75 -41
-62 -43 -86 -7 -127 17 -19 37 -35 44 -35 8 0 27 -11 43 -25 29 -25 66 -33 76
-17 8 14 -8 29 -46 45 -59 25 -41 60 19 40 16 -6 34 -8 41 -6 19 7 14 31 -8
45 -27 17 -25 42 5 56 14 6 33 28 42 47 15 30 21 35 46 33 39 -4 78 42 57 67
-20 24 -66 18 -102 -14z"/>
<path d="M18305 3426 c-72 -31 -125 -96 -163 -199 -28 -74 -28 -77 6 -77 27 0
30 5 53 77 38 122 85 174 177 199 l47 13 -45 0 c-25 0 -58 -6 -75 -13z"/>
<path d="M11720 3422 c0 -4 16 -24 36 -43 44 -41 82 -117 90 -182 7 -48 21
-64 48 -54 12 5 12 16 0 77 -15 78 -55 161 -92 191 -24 19 -82 27 -82 11z"/>
<path d="M11300 3255 c-11 -13 -8 -15 14 -15 56 0 133 -65 176 -150 18 -35 24
-40 43 -34 31 9 31 8 12 48 -22 46 -87 119 -129 145 -39 25 -98 27 -116 6z"/>
<path d="M15295 3198 c-14 -82 -41 -88 -105 -23 -73 74 -97 56 -51 -37 45 -89
38 -204 -16 -260 -36 -37 -139 -82 -192 -82 -42 -1 -46 2 -68 39 -12 22 -32
81 -44 130 -22 96 -53 178 -74 195 -15 13 -20 2 -30 -64 -7 -42 -4 -52 33
-114 43 -70 72 -141 72 -174 0 -10 -9 -31 -19 -46 -14 -19 -21 -51 -24 -108
-4 -64 -10 -90 -30 -120 -41 -65 -84 -156 -102 -214 -12 -40 -19 -120 -25
-295 -6 -158 -14 -260 -25 -300 -8 -33 -18 -110 -22 -171 l-6 -111 -39 -26
c-22 -14 -80 -38 -129 -53 -86 -26 -120 -46 -105 -62 9 -9 432 -19 466 -11 18
4 24 11 22 25 -2 10 -4 42 -4 69 1 28 1 85 1 127 0 66 5 90 40 177 22 55 52
150 65 210 24 106 63 201 102 249 l19 23 42 -78 c28 -53 53 -122 76 -214 20
-75 47 -165 61 -200 14 -35 35 -106 47 -157 14 -63 27 -96 40 -106 20 -14 20
-14 0 -47 -24 -38 -27 -75 -8 -81 19 -8 172 -2 185 6 17 10 15 47 -3 74 -14
19 -14 24 1 47 16 24 15 30 -14 118 -26 80 -31 111 -35 232 -5 125 -9 151 -39
240 -31 95 -33 106 -30 227 2 103 7 142 27 205 33 104 32 163 -5 263 -34 92
-36 115 -15 185 13 41 14 59 4 98 -11 45 -9 97 7 215 6 40 5 42 -19 42 -22 0
-26 -6 -32 -42z"/>
<path d="M17857 3133 c-3 -5 -3 -22 0 -38 4 -28 10 -32 81 -53 73 -22 176 -42
215 -42 14 0 17 10 17 64 0 49 -4 65 -16 70 -23 9 -292 7 -297 -1z"/>
<path d="M11693 3087 c-89 -23 -165 -45 -168 -49 -4 -3 5 -40 19 -81 14 -42
26 -88 26 -104 l0 -30 112 -17 c128 -19 190 -35 182 -47 -3 -5 8 -11 23 -15
48 -10 55 -14 50 -27 -2 -7 -21 -12 -46 -11 -22 0 -41 -3 -41 -8 0 -4 -11 -8
-24 -8 -36 0 -92 -37 -117 -76 -12 -20 -32 -37 -47 -40 -15 -4 -32 -11 -37
-18 -6 -6 -19 -16 -30 -22 -30 -16 -55 -73 -55 -124 0 -25 12 -92 26 -150 17
-66 27 -135 28 -185 1 -71 -2 -86 -29 -134 -34 -61 -84 -108 -160 -148 -37
-19 -56 -36 -60 -53 -8 -29 -7 -253 1 -284 7 -28 -26 -58 -108 -100 -112 -58
-84 -73 130 -68 l144 3 -7 72 c-5 61 -3 78 14 112 21 42 50 159 76 310 9 50
36 149 61 220 25 72 61 178 80 238 42 130 58 138 97 50 32 -73 87 -292 87
-347 0 -22 -18 -113 -40 -201 -22 -88 -43 -188 -46 -221 -9 -81 11 -104 89
-105 l52 -1 -33 -14 c-25 -11 -42 -12 -68 -5 -40 11 -39 12 -49 -61 -6 -47 -6
-48 22 -49 15 -1 46 0 68 2 22 1 108 3 190 3 141 1 150 2 150 20 0 16 -17 25
-83 47 -46 14 -93 35 -105 46 -12 11 -30 23 -41 27 -17 6 -18 8 -2 24 10 12
16 36 16 70 0 39 14 86 59 199 100 251 102 260 76 493 -9 74 -22 207 -30 295
-20 230 -32 262 -123 333 -41 31 -56 59 -77 142 -38 149 -33 140 -63 139 -15
0 -100 -19 -189 -42z"/>
<path d="M17324 3074 c44 -40 53 -45 83 -39 20 4 33 2 33 -5 0 -5 -4 -10 -10
-10 -5 0 -10 -4 -10 -9 0 -6 12 -6 32 0 18 5 39 9 45 9 24 0 13 -18 -17 -29
-16 -5 -30 -11 -30 -13 0 -2 21 -1 47 1 43 3 46 2 34 -13 -12 -15 -2 -16 118
-16 74 0 131 4 131 9 0 5 -40 44 -89 85 l-89 76 -164 0 -163 -1 49 -45z"/>
<path d="M17940 2953 c-78 -8 -80 -9 -80 -61 0 -31 -7 -57 -21 -77 -49 -73
-58 -99 -48 -145 7 -33 6 -55 -7 -99 -13 -44 -17 -101 -18 -266 l-1 -210 38
-85 c83 -187 169 -415 170 -449 0 -20 -4 -61 -8 -92 -9 -64 -31 -85 -130 -119
-67 -23 -84 -35 -69 -50 10 -10 411 -16 421 -6 3 2 0 26 -5 52 -6 26 -7 56 -2
68 4 13 2 37 -7 61 -8 22 -19 101 -23 175 -10 152 -17 197 -54 324 -28 96 -46
279 -29 289 24 15 124 -333 202 -705 7 -31 23 -74 37 -94 14 -20 23 -42 20
-49 -2 -7 -24 -26 -47 -41 -52 -35 -68 -59 -52 -75 13 -13 273 -13 287 1 5 5
4 22 -3 42 -7 18 -19 125 -27 238 -16 218 -25 267 -70 370 -36 82 -36 160 1
316 42 174 42 218 6 367 -17 71 -31 139 -31 153 0 32 -18 31 -26 -1 -14 -58
-92 -74 -138 -28 -14 14 -33 49 -41 78 -15 50 -18 52 -83 83 -72 33 -107 41
-162 35z"/>
<path d="M11405 2537 c-15 -70 -15 -81 5 -247 26 -204 23 -250 -20 -383 -42
-132 -40 -138 36 -89 67 43 125 109 143 161 18 55 13 155 -15 263 -28 110 -33
195 -16 249 7 19 10 52 9 74 l-3 40 -61 3 -61 3 -17 -74z"/>
<path d="M12980 1845 c0 -363 3 -555 10 -555 7 0 10 192 10 555 0 363 -3 555
-10 555 -7 0 -10 -192 -10 -555z"/>
<path d="M13166 2278 c-3 -68 -8 -318 -11 -555 -5 -382 -3 -433 10 -433 13 0
15 66 15 555 0 305 -2 555 -4 555 -2 0 -7 -55 -10 -122z"/>
</g>
</svg>
