<svg version="1.1" width="147" height="36" viewBox="44.416 35.398 98 24" xmlns="http://www.w3.org/2000/svg" xmlns:xlink="http://www.w3.org/1999/xlink"><defs xmlns="http://www.w3.org/2000/svg"><style xmlns="http://www.w3.org/1999/xhtml" type="text/css">@import url(https://fonts.googleapis.com/css?family=Arimo:regular,700,italic,700italic);</style><style xmlns="http://www.w3.org/1999/xhtml" type="text/css">@import url(https://fonts.googleapis.com/css?family=Arizonia:regular);</style><style xmlns="http://www.w3.org/1999/xhtml" type="text/css">@import url(https://fonts.googleapis.com/css?family=Armata:regular);</style><style xmlns="http://www.w3.org/1999/xhtml" type="text/css">@import url(https://fonts.googleapis.com/css?family=Arvo:regular,700,italic,700italic);</style><style xmlns="http://www.w3.org/1999/xhtml" type="text/css">@import url(https://fonts.googleapis.com/css?family=Asap:regular,700,italic,700italic);</style><style xmlns="http://www.w3.org/1999/xhtml" type="text/css">@import url(https://fonts.googleapis.com/css?family=Audiowide:regular);</style><style xmlns="http://www.w3.org/1999/xhtml" type="text/css">@import url(https://fonts.googleapis.com/css?family=Bad+Script:regular);</style><style xmlns="http://www.w3.org/1999/xhtml" type="text/css">@import url(https://fonts.googleapis.com/css?family=Bangers:regular);</style><style xmlns="http://www.w3.org/1999/xhtml" type="text/css">@import url(https://fonts.googleapis.com/css?family=BenchNine:regular,300,700);</style><style xmlns="http://www.w3.org/1999/xhtml" type="text/css">@import url(https://fonts.googleapis.com/css?family=Bevan:regular);</style><style xmlns="http://www.w3.org/1999/xhtml" type="text/css">@import url(https://fonts.googleapis.com/css?family=Bilbo:regular);</style><style xmlns="http://www.w3.org/1999/xhtml" type="text/css">@import url(https://fonts.googleapis.com/css?family=Bitter:regular,700,italic);</style><style xmlns="http://www.w3.org/1999/xhtml" type="text/css">@import url(https://fonts.googleapis.com/css?family=Black+Ops+One:regular);</style><style xmlns="http://www.w3.org/1999/xhtml" type="text/css">@import url(https://fonts.googleapis.com/css?family=Bree+Serif:regular);</style></defs><g xmlns="http://www.w3.org/2000/svg" id="obj_2"><g id="obj_3" transform="matrix(1,0,0,1,44.416,35.752)" opacity="1" display="inline"><path d="M 30.708 6.48 L 10.209 6.48 C 9.788 6.48 9.417 6.635 9.097 6.945 C 8.777 7.255 8.58 7.58 8.507 7.92 L 6.531 16.59 C 6.495 16.69 6.476 16.775 6.476 16.845 C 6.476 16.915 6.476 16.98 6.476 17.04 C 6.476 17.36 6.696 17.52 7.135 17.52 L 28.266 17.52 L 26.811 24 L 4.748 24 C 1.583 24 0 22.7 0 20.1 C 0 19.5 0.082 18.84 0.247 18.12 L 3.046 5.85 C 3.924 1.95 6.312 0 10.209 0 L 32.19 0 L 30.708 6.48 Z " fill-opacity="1" fill="#000000" stroke="none" stroke-width="1" stroke-linecap="square" stroke-linejoin="miter" fill-rule="nozero" filter="url(#obj_3_filter)"/><defs><filter id="obj_3_filter" x="-200%" y="-200%" width="500%" height="500%" filterUnits="objectBoundingBox"><feSpecularLighting result="specOut0" in="SourceGraphic" surfaceScale="0" specularConstant="0.75" specularExponent="30" lighting-color="#FFFFFF"><feDistantLight result="specOut0" azimuth="39" elevation="34"/></feSpecularLighting><feComposite result="specOut0" operator="in" in="specOut0" in2="SourceAlpha"/><feComposite result="specOut0" operator="arithmetic" in="SourceGraphic" in2="specOut0" k1="0" k2="1" k3="1" k4="0"/><feBlend result="specOut0" mode="multiply" in="specOut0" in2="specOut0"/><feOffset dx="0" dy="0"/><feComposite result="shadowDropdiff" operator="arithmetic" in2="SourceAlpha" k1="0" k2="1" k3="-1" k4="0"/><feFlood flood-opacity="1"/><feComposite operator="in" in2="shadowDropdiff"/><feComposite result="shadowDrop" operator="over" in2="specOut0"/></filter></defs></g><g id="obj_4" transform="matrix(1,0,0,1,111.556,35.752)" opacity="1" display="inline"><path d="M 29.58 6.48 L 18.15 6.48 L 13.8 24 L 7.32 24 L 11.67 6.48 L 0 6.48 L 1.62 0 L 31.2 0 L 29.58 6.48 Z " fill-opacity="1" fill="#333333" stroke-opacity="1" stroke="none" stroke-width="1" stroke-linecap="square" stroke-linejoin="miter" filter="url(#obj_4_filter)"/><defs><filter id="obj_4_filter" x="-200%" y="-200%" width="500%" height="500%" filterUnits="objectBoundingBox"><feSpecularLighting result="specOut0" in="SourceGraphic" surfaceScale="0" specularConstant="0.75" specularExponent="30" lighting-color="#FFFFFF"><feDistantLight result="specOut0" azimuth="39" elevation="34"/></feSpecularLighting><feComposite result="specOut0" operator="in" in="specOut0" in2="SourceAlpha"/><feComposite result="specOut0" operator="arithmetic" in="SourceGraphic" in2="specOut0" k1="0" k2="1" k3="1" k4="0"/><feBlend result="specOut0" mode="multiply" in="specOut0" in2="specOut0"/><feOffset dx="0" dy="0"/><feComposite result="shadowDropdiff" operator="arithmetic" in2="SourceAlpha" k1="0" k2="1" k3="-1" k4="0"/><feFlood flood-opacity="1"/><feComposite operator="in" in2="shadowDropdiff"/><feComposite result="shadowDrop" operator="over" in2="specOut0"/></filter></defs></g><g id="obj_5" transform="matrix(1,0,0,1,74.836,35.398)" opacity="1" display="inline"><path d="M 33.42 6.18 L 11.61 6.18 C 11.21 6.18 10.86 6.275 10.56 6.465 C 10.26 6.655 10.05 6.96 9.93 7.38 C 9.79 7.84 9.705 8.145 9.675 8.295 C 9.645 8.445 9.63 8.54 9.63 8.58 C 9.63 8.78 9.69 8.91 9.81 8.97 C 9.93 9.03 10.08 9.06 10.26 9.06 L 27.03 9.06 C 30.47 9.06 32.19 10.33 32.19 12.87 C 32.19 13.09 32.18 13.306 32.16 13.515 C 32.14 13.725 32.095 14.01 32.025 14.37 C 31.955 14.73 31.845 15.205 31.695 15.795 C 31.545 16.385 31.34 17.18 31.08 18.18 C 30.56 20.12 29.665 21.575 28.395 22.545 C 27.125 23.515 25.43 24 23.31 24 L 0 24 L 1.53 17.82 L 23.28 17.82 C 23.68 17.82 24.04 17.73 24.36 17.55 C 24.68 17.37 24.9 17.06 25.02 16.62 C 25.1 16.32 25.165 16.086 25.215 15.916 C 25.265 15.745 25.3 15.611 25.32 15.51 C 25.34 15.41 25.35 15.34 25.35 15.3 C 25.35 15.26 25.35 15.22 25.35 15.18 C 25.35 15.02 25.3 14.92 25.2 14.88 C 25.1 14.84 24.94 14.82 24.72 14.82 L 7.95 14.82 C 4.41 14.82 2.64 13.63 2.64 11.25 C 2.64 11.07 2.645 10.89 2.655 10.71 C 2.665 10.53 2.71 10.265 2.79 9.916 C 2.87 9.565 2.99 9.075 3.15 8.445 C 3.31 7.815 3.53 6.95 3.81 5.85 C 4.83 1.95 7.44 0 11.64 0 L 34.95 0 L 33.42 6.18 Z " fill-opacity="1" fill="#4267b2" stroke="none" stroke-width="1" stroke-linecap="square" stroke-linejoin="miter" filter="url(#obj_5_filter)"/><defs><filter id="obj_5_filter" x="-200%" y="-200%" width="500%" height="500%" filterUnits="objectBoundingBox"><feOffset dx="0" dy="0"/><feComposite result="shadowDropdiff" operator="arithmetic" in2="SourceAlpha" k1="0" k2="1" k3="-1" k4="0"/><feFlood flood-color="#000000" flood-opacity="1"/><feComposite operator="in" in2="shadowDropdiff"/><feComposite result="shadowDrop" operator="over" in2="SourceGraphic"/><feGaussianBlur in="SourceAlpha" stdDeviation="1"/><feComposite result="glowInnerdiff" operator="arithmetic" in2="SourceAlpha" k1="0" k2="-1" k3="1" k4="0"/><feFlood flood-color="#007f7f" flood-opacity="1"/><feComposite operator="in" in2="glowInnerdiff"/><feComposite result="glowInner" operator="over" in2="shadowDrop"/></filter></defs></g></g></svg>